<svg id="visual" viewBox="0 0 900 600" width="900" height="600" xmlns="http://www.w3.org/2000/svg" xmlns:xlink="http://www.w3.org/1999/xlink" version="1.1"><rect x="0" y="0" width="900" height="600" fill="#202731"></rect><path d="M0 448L21.5 446C43 444 86 440 128.8 426.2C171.7 412.3 214.3 388.7 257.2 388.8C300 389 343 413 385.8 414.5C428.7 416 471.3 395 514.2 394C557 393 600 412 642.8 420.2C685.7 428.3 728.3 425.7 771.2 412.5C814 399.3 857 375.7 878.5 363.8L900 352L900 601L878.5 601C857 601 814 601 771.2 601C728.3 601 685.7 601 642.8 601C600 601 557 601 514.2 601C471.3 601 428.7 601 385.8 601C343 601 300 601 257.2 601C214.3 601 171.7 601 128.8 601C86 601 43 601 21.5 601L0 601Z" fill="#fa7268"></path><path d="M0 471L21.5 471.5C43 472 86 473 128.8 471.2C171.7 469.3 214.3 464.7 257.2 453.2C300 441.7 343 423.3 385.8 424.2C428.7 425 471.3 445 514.2 449.2C557 453.3 600 441.7 642.8 433C685.7 424.3 728.3 418.7 771.2 420.3C814 422 857 431 878.5 435.5L900 440L900 601L878.5 601C857 601 814 601 771.2 601C728.3 601 685.7 601 642.8 601C600 601 557 601 514.2 601C471.3 601 428.7 601 385.8 601C343 601 300 601 257.2 601C214.3 601 171.7 601 128.8 601C86 601 43 601 21.5 601L0 601Z" fill="#e14d6d"></path><path d="M0 437L21.5 439.8C43 442.7 86 448.3 128.8 450C171.7 451.7 214.3 449.3 257.2 451.3C300 453.3 343 459.7 385.8 466.8C428.7 474 471.3 482 514.2 485.5C557 489 600 488 642.8 489.7C685.7 491.3 728.3 495.7 771.2 489.8C814 484 857 468 878.5 460L900 452L900 601L878.5 601C857 601 814 601 771.2 601C728.3 601 685.7 601 642.8 601C600 601 557 601 514.2 601C471.3 601 428.7 601 385.8 601C343 601 300 601 257.2 601C214.3 601 171.7 601 128.8 601C86 601 43 601 21.5 601L0 601Z" fill="#bf2d73"></path><path d="M0 527L21.5 523.3C43 519.7 86 512.3 128.8 504.7C171.7 497 214.3 489 257.2 494.3C300 499.7 343 518.3 385.8 524.8C428.7 531.3 471.3 525.7 514.2 525.7C557 525.7 600 531.3 642.8 526C685.7 520.7 728.3 504.3 771.2 499C814 493.7 857 499.3 878.5 502.2L900 505L900 601L878.5 601C857 601 814 601 771.2 601C728.3 601 685.7 601 642.8 601C600 601 557 601 514.2 601C471.3 601 428.7 601 385.8 601C343 601 300 601 257.2 601C214.3 601 171.7 601 128.8 601C86 601 43 601 21.5 601L0 601Z" fill="#951678"></path><path d="M0 543L21.5 547C43 551 86 559 128.8 558.5C171.7 558 214.3 549 257.2 549.8C300 550.7 343 561.3 385.8 562.7C428.7 564 471.3 556 514.2 550.2C557 544.3 600 540.7 642.8 542.5C685.7 544.3 728.3 551.7 771.2 557.8C814 564 857 569 878.5 571.5L900 574L900 601L878.5 601C857 601 814 601 771.2 601C728.3 601 685.7 601 642.8 601C600 601 557 601 514.2 601C471.3 601 428.7 601 385.8 601C343 601 300 601 257.2 601C214.3 601 171.7 601 128.8 601C86 601 43 601 21.5 601L0 601Z" fill="#61117a"></path></svg>