<svg id="visual" viewBox="0 0 960 540" width="960" height="540" xmlns="http://www.w3.org/2000/svg" xmlns:xlink="http://www.w3.org/1999/xlink" version="1.1"><rect x="0" y="0" width="960" height="540" fill="#202731"></rect><path d="M0 136L22.8 146.8C45.7 157.7 91.3 179.3 137 192.7C182.7 206 228.3 211 274 205.8C319.7 200.7 365.3 185.3 411.2 176C457 166.7 503 163.3 548.8 172.3C594.7 181.3 640.3 202.7 686 208.8C731.7 215 777.3 206 823 200.3C868.7 194.7 914.3 192.3 937.2 191.2L960 190L960 0L937.2 0C914.3 0 868.7 0 823 0C777.3 0 731.7 0 686 0C640.3 0 594.7 0 548.8 0C503 0 457 0 411.2 0C365.3 0 319.7 0 274 0C228.3 0 182.7 0 137 0C91.3 0 45.7 0 22.8 0L0 0Z" fill="#fa7268"></path><path d="M0 160L22.8 156.7C45.7 153.3 91.3 146.7 137 138.7C182.7 130.7 228.3 121.3 274 120.7C319.7 120 365.3 128 411.2 139.2C457 150.3 503 164.7 548.8 170.3C594.7 176 640.3 173 686 171.5C731.7 170 777.3 170 823 171.2C868.7 172.3 914.3 174.7 937.2 175.8L960 177L960 0L937.2 0C914.3 0 868.7 0 823 0C777.3 0 731.7 0 686 0C640.3 0 594.7 0 548.8 0C503 0 457 0 411.2 0C365.3 0 319.7 0 274 0C228.3 0 182.7 0 137 0C91.3 0 45.7 0 22.8 0L0 0Z" fill="#ef5f67"></path><path d="M0 104L22.8 110.8C45.7 117.7 91.3 131.3 137 134.5C182.7 137.7 228.3 130.3 274 122.5C319.7 114.7 365.3 106.3 411.2 104.8C457 103.3 503 108.7 548.8 108.7C594.7 108.7 640.3 103.3 686 97.5C731.7 91.7 777.3 85.3 823 90.3C868.7 95.3 914.3 111.7 937.2 119.8L960 128L960 0L937.2 0C914.3 0 868.7 0 823 0C777.3 0 731.7 0 686 0C640.3 0 594.7 0 548.8 0C503 0 457 0 411.2 0C365.3 0 319.7 0 274 0C228.3 0 182.7 0 137 0C91.3 0 45.7 0 22.8 0L0 0Z" fill="#e34c67"></path><path d="M0 82L22.8 77.5C45.7 73 91.3 64 137 64.2C182.7 64.3 228.3 73.7 274 80C319.7 86.3 365.3 89.7 411.2 85.3C457 81 503 69 548.8 66.3C594.7 63.7 640.3 70.3 686 74.3C731.7 78.3 777.3 79.7 823 75.7C868.7 71.7 914.3 62.3 937.2 57.7L960 53L960 0L937.2 0C914.3 0 868.7 0 823 0C777.3 0 731.7 0 686 0C640.3 0 594.7 0 548.8 0C503 0 457 0 411.2 0C365.3 0 319.7 0 274 0C228.3 0 182.7 0 137 0C91.3 0 45.7 0 22.8 0L0 0Z" fill="#d53867"></path><path d="M0 60L22.8 57.2C45.7 54.3 91.3 48.7 137 45.8C182.7 43 228.3 43 274 42.8C319.7 42.7 365.3 42.3 411.2 39.8C457 37.3 503 32.7 548.8 32.7C594.7 32.7 640.3 37.3 686 38C731.7 38.7 777.3 35.3 823 37.5C868.7 39.7 914.3 47.3 937.2 51.2L960 55L960 0L937.2 0C914.3 0 868.7 0 823 0C777.3 0 731.7 0 686 0C640.3 0 594.7 0 548.8 0C503 0 457 0 411.2 0C365.3 0 319.7 0 274 0C228.3 0 182.7 0 137 0C91.3 0 45.7 0 22.8 0L0 0Z" fill="#c62368"></path></svg>