<svg id="visual" viewBox="0 0 900 600" width="900" height="600" xmlns="http://www.w3.org/2000/svg" xmlns:xlink="http://www.w3.org/1999/xlink" version="1.1"><path d="M0 43L13.7 53C27.3 63 54.7 83 82 96C109.3 109 136.7 115 163.8 115C191 115 218 109 245.2 101C272.3 93 299.7 83 327 80C354.3 77 381.7 81 409 86C436.3 91 463.7 97 491 90C518.3 83 545.7 63 573 63C600.3 63 627.7 83 654.8 90C682 97 709 91 736.2 85C763.3 79 790.7 73 818 73C845.3 73 872.7 79 886.3 82L900 85L900 0L886.3 0C872.7 0 845.3 0 818 0C790.7 0 763.3 0 736.2 0C709 0 682 0 654.8 0C627.7 0 600.3 0 573 0C545.7 0 518.3 0 491 0C463.7 0 436.3 0 409 0C381.7 0 354.3 0 327 0C299.7 0 272.3 0 245.2 0C218 0 191 0 163.8 0C136.7 0 109.3 0 82 0C54.7 0 27.3 0 13.7 0L0 0Z" fill="#61117a"></path><path d="M0 127L13.7 140C27.3 153 54.7 179 82 199C109.3 219 136.7 233 163.8 232C191 231 218 215 245.2 212C272.3 209 299.7 219 327 209C354.3 199 381.7 169 409 171C436.3 173 463.7 207 491 213C518.3 219 545.7 197 573 183C600.3 169 627.7 163 654.8 170C682 177 709 197 736.2 210C763.3 223 790.7 229 818 221C845.3 213 872.7 191 886.3 180L900 169L900 83L886.3 80C872.7 77 845.3 71 818 71C790.7 71 763.3 77 736.2 83C709 89 682 95 654.8 88C627.7 81 600.3 61 573 61C545.7 61 518.3 81 491 88C463.7 95 436.3 89 409 84C381.7 79 354.3 75 327 78C299.7 81 272.3 91 245.2 99C218 107 191 113 163.8 113C136.7 113 109.3 107 82 94C54.7 81 27.3 61 13.7 51L0 41Z" fill="#631590"></path><path d="M0 205L13.7 213C27.3 221 54.7 237 82 254C109.3 271 136.7 289 163.8 290C191 291 218 275 245.2 276C272.3 277 299.7 295 327 283C354.3 271 381.7 229 409 231C436.3 233 463.7 279 491 287C518.3 295 545.7 265 573 248C600.3 231 627.7 227 654.8 231C682 235 709 247 736.2 255C763.3 263 790.7 267 818 268C845.3 269 872.7 267 886.3 266L900 265L900 167L886.3 178C872.7 189 845.3 211 818 219C790.7 227 763.3 221 736.2 208C709 195 682 175 654.8 168C627.7 161 600.3 167 573 181C545.7 195 518.3 217 491 211C463.7 205 436.3 171 409 169C381.7 167 354.3 197 327 207C299.7 217 272.3 207 245.2 210C218 213 191 229 163.8 230C136.7 231 109.3 217 82 197C54.7 177 27.3 151 13.7 138L0 125Z" fill="#601ca8"></path><path d="M0 397L13.7 414C27.3 431 54.7 465 82 477C109.3 489 136.7 479 163.8 456C191 433 218 397 245.2 385C272.3 373 299.7 385 327 408C354.3 431 381.7 465 409 469C436.3 473 463.7 447 491 445C518.3 443 545.7 465 573 469C600.3 473 627.7 459 654.8 452C682 445 709 445 736.2 455C763.3 465 790.7 485 818 487C845.3 489 872.7 473 886.3 465L900 457L900 263L886.3 264C872.7 265 845.3 267 818 266C790.7 265 763.3 261 736.2 253C709 245 682 233 654.8 229C627.7 225 600.3 229 573 246C545.7 263 518.3 293 491 285C463.7 277 436.3 231 409 229C381.7 227 354.3 269 327 281C299.7 293 272.3 275 245.2 274C218 273 191 289 163.8 288C136.7 287 109.3 269 82 252C54.7 235 27.3 219 13.7 211L0 203Z" fill="#5526c2"></path><path d="M0 601L13.7 601C27.3 601 54.7 601 82 601C109.3 601 136.7 601 163.8 601C191 601 218 601 245.2 601C272.3 601 299.7 601 327 601C354.3 601 381.7 601 409 601C436.3 601 463.7 601 491 601C518.3 601 545.7 601 573 601C600.3 601 627.7 601 654.8 601C682 601 709 601 736.2 601C763.3 601 790.7 601 818 601C845.3 601 872.7 601 886.3 601L900 601L900 455L886.3 463C872.7 471 845.3 487 818 485C790.7 483 763.3 463 736.2 453C709 443 682 443 654.8 450C627.7 457 600.3 471 573 467C545.7 463 518.3 441 491 443C463.7 445 436.3 471 409 467C381.7 463 354.3 429 327 406C299.7 383 272.3 371 245.2 383C218 395 191 431 163.8 454C136.7 477 109.3 487 82 475C54.7 463 27.3 429 13.7 412L0 395Z" fill="#3c31dd"></path></svg>